<svg width="100" height="65" viewBox="0 0 100 65" fill="none" xmlns="http://www.w3.org/2000/svg">
<path fill-rule="evenodd" clip-rule="evenodd" d="M12.2694 64.9294C3.68788 65.8736 -2.61699 57.1724 1.07956 49.4824L21.8699 6.21792C25.8494 -2.06984 37.8213 -2.07344 41.806 6.21192L62.6269 49.4638C66.3282 57.1517 60.0287 65.853 51.4466 64.9176L35.5325 63.1839L35.5234 33.7826C35.5231 32.822 35.1354 31.9009 34.4457 31.2219C33.7559 30.5429 32.8206 30.1616 31.8454 30.1619C30.8702 30.1622 29.9351 30.5441 29.2458 31.2235C28.5564 31.9029 28.1693 32.8242 28.1696 33.7848L28.1787 63.1825L12.2694 64.9294ZM48.5601 64.9294C39.9786 65.8736 33.6737 57.1724 37.3702 49.4824L58.1606 6.21792C62.1401 -2.06984 74.112 -2.07344 78.0967 6.21192L98.9175 49.4638C102.619 57.1517 96.3194 65.853 87.7373 64.9176L71.8232 63.1839L71.8141 33.7826C71.8138 32.822 71.4261 31.9009 70.7363 31.2219C70.0466 30.5429 69.1112 30.1616 68.1361 30.1619C67.1609 30.1622 66.2258 30.5441 65.5364 31.2235C64.8471 31.9029 64.46 32.8242 64.4603 33.7848L64.4694 63.1825L48.5601 64.9294Z" fill="white"/>
</svg>
